# File created by Blade
# Date/Time:  Wed Apr 08 17:00:23 2015
#---------------------------------------------------------
:version 1.10
:name HOM
:units
  mass 1.0
  length 1.000000
  angle deg
:documentation
     Acclaim Skeleton File
:root
   axis xyz
   order TX TY TZ RX RY RZ
   position 0.000000 0.000000 0.000000
   orientation 0 0 0
:bonedata
   begin
      id 1
      name Spine_dum
      direction 0.000000 1.000000 0.000000
      length 5.893853
      axis 0.0 0.0 0.0 xyz
   end
   begin
      id 2
      name LeftUpLeg_dum
      direction 1.000000 0.000000 0.000000
      length 3.697939
      axis 0.0 0.0 0.0 xyz
   end
   begin
      id 3
      name RightUpLeg_dum
      direction -1.000000 0.000000 0.000000
      length 3.697939
      axis 0.0 0.0 0.0 xyz
   end
   begin
      id 4
      name Spine
      direction 0.000000 1.000000 0.000000
      length 0.000000
      axis 0.0 0.0 0.0 xyz
      dof rx ry rz
   end
   begin
      id 5
      name Spine_dum1
      direction 0.000000 1.000000 0.000000
      length 16.447146
      axis 0.0 0.0 0.0 xyz
   end
   begin
      id 6
      name Spine_dum2
      direction 0.000000 1.000000 0.000000
      length 10.900383
      axis 0.0 0.0 0.0 xyz
   end
   begin
      id 7
      name Spine_dum3
      direction 0.000000 1.000000 0.000000
      length 10.900383
      axis 0.0 0.0 0.0 xyz
   end
   begin
      id 8
      name Head
      direction 0.000000 1.000000 0.000000
      length 4.527550
      axis 0.0 0.0 0.0 xyz
      dof rx ry rz
   end
   begin
      id 9
      name LeftShoulder
      direction 1.000000 0.000000 0.000000
      length 8.219464
      axis 0.0 0.0 -90.0 xyz
      dof rx ry rz
   end
   begin
      id 10
      name LeftArm
      direction 1.000000 0.000000 0.000000
      length 11.094937
      axis 0.0 0.0 -90.0 xyz
      dof rx ry rz
   end
   begin
      id 11
      name LeftForeArm
      direction 1.000000 0.000000 0.000000
      length 9.103875
      axis 0.0 0.0 -90.0 xyz
      dof ry rz rx
   end
   begin
      id 12
      name LeftHand
      direction 0.000000 0.000000 0.000000
      length 0.000000
      axis 0.0 0.0 -90.0 xyz
      dof rx ry rz
   end
   begin
      id 13
      name LeftHand_dum1
      direction 0.000000 0.000000 0.000000
      length 0.000000
      axis 0.0 0.0 -90.0 xyz
   end
   begin
      id 14
      name LeftHand_dum2
      direction 1.000000 0.000000 0.000000
      length 3.937000
      axis 0.0 0.0 -90.0 xyz
   end
   begin
      id 15
      name LeftHandThumb1
      direction 0.000000 0.000000 1.000000
      length 3.937000
      axis 0.0 0.0 -90.0 xyz
      dof rx rz ry
   end
   begin
      id 16
      name RightShoulder
      direction -1.000000 0.000000 0.000000
      length 8.219464
      axis 0.0 0.0 90.0 xyz
      dof rx ry rz
   end
   begin
      id 17
      name RightArm
      direction -1.000000 0.000000 0.000000
      length 11.094937
      axis 0.0 0.0 90.0 xyz
      dof rx ry rz
   end
   begin
      id 18
      name RightForeArm
      direction -1.000000 0.000000 0.000000
      length 9.103875
      axis 0.0 0.0 90.0 xyz
      dof ry rz rx
   end
   begin
      id 19
      name RightHand
      direction 0.000000 0.000000 0.000000
      length 0.000000
      axis 0.0 0.0 90.0 xyz
      dof rx ry rz
   end
   begin
      id 20
      name RightHand_dum1
      direction 0.000000 0.000000 0.000000
      length 0.000000
      axis 0.0 0.0 90.0 xyz
   end
   begin
      id 21
      name RightHand_dum2
      direction -1.000000 0.000000 0.000000
      length 3.937000
      axis 0.0 0.0 90.0 xyz
   end
   begin
      id 22
      name RightHandThumb1
      direction 0.000000 0.000000 1.000000
      length 3.937000
      axis 0.0 0.0 90.0 xyz
      dof rx rz ry
   end
   begin
      id 23
      name LeftUpLeg
      direction 0.000000 -1.000000 0.000000
      length 16.181467
      axis 0.0 0.0 0.0 xyz
      dof rx ry rz
   end
   begin
      id 24
      name LeftLeg
      direction 0.000000 -1.000000 0.000000
      length 16.501392
      axis 0.0 0.0 0.0 xyz
      dof rx ry rz
   end
   begin
      id 25
      name LeftFoot
      direction 0.000000 -0.258819 0.965926
      length 6.408245
      axis 15.0 0.0 0.0 xyz
      dof rx ry rz
   end
   begin
      id 26
      name LeftToeBase
      direction 0.000000 0.000000 1.000000
      length 2.952750
      axis 0.0 0.0 0.0 xyz
      dof rx ry rz
   end
   begin
      id 27
      name RightUpLeg
      direction 0.000000 -1.000000 0.000000
      length 16.181467
      axis 0.0 0.0 0.0 xyz
      dof rx ry rz
   end
   begin
      id 28
      name RightLeg
      direction 0.000000 -1.000000 0.000000
      length 16.501392
      axis 0.0 0.0 0.0 xyz
      dof rx ry rz
   end
   begin
      id 29
      name RightFoot
      direction 0.000000 -0.258819 0.965926
      length 6.408245
      axis 15.0 0.0 0.0 xyz
      dof rx ry rz
   end
   begin
      id 30
      name RightToeBase
      direction 0.000000 0.000000 1.000000
      length 2.952750
      axis 0.0 0.0 0.0 xyz
      dof rx ry rz
   end
:hierarchy
   begin
      root Spine_dum LeftUpLeg_dum RightUpLeg_dum
      Spine_dum Spine
      LeftUpLeg_dum LeftUpLeg
      RightUpLeg_dum RightUpLeg
      Spine Spine_dum1 Spine_dum2 Spine_dum3
      Spine_dum1 Head
      Spine_dum2 LeftShoulder
      Spine_dum3 RightShoulder
      LeftShoulder LeftArm
      LeftArm LeftForeArm
      LeftForeArm LeftHand
      LeftHand LeftHand_dum1 LeftHand_dum2
      LeftHand_dum1 LeftHandThumb1
      RightShoulder RightArm
      RightArm RightForeArm
      RightForeArm RightHand
      RightHand RightHand_dum1 RightHand_dum2
      RightHand_dum1 RightHandThumb1
      LeftUpLeg LeftLeg
      LeftLeg LeftFoot
      LeftFoot LeftToeBase
      RightUpLeg RightLeg
      RightLeg RightFoot
      RightFoot RightToeBase
   end

# File created by Blade
# Date/Time:  Wed Apr 08 17:00:17 2015
# Frame Rate: 120.000 fps
#------------------------------------------------------
:FULLY-SPECIFIED
:DEGREES
540
root 1.465818 35.733641 3.149155 -35.950701 -81.668418 23.059455
Spine 8.417380 1.735007 -3.152685
Head 2.629024 4.241519 -17.496905
LeftShoulder 8.339208 -5.391386 27.099949
LeftArm 86.144176 43.461982 -53.105022
LeftForeArm -49.224675 -0.000000 97.260835
LeftHand -34.071478 -0.000000 23.077172
LeftHandThumb1 -26.253704 0.000000 33.147579
RightShoulder 6.577318 -21.906705 -31.765668
RightArm 97.611547 32.705509 77.883478
RightForeArm 8.318657 0.000000 2.779855
RightHand 2.467908 -0.000000 -2.742061
RightHandThumb1 -24.326973 -0.000000 -32.862282
LeftUpLeg 15.095245 7.828454 4.600310
LeftLeg 11.211959 -0.000000 -0.000000
LeftFoot -14.099412 -0.085114 -11.139775
LeftToeBase 9.830022 -0.000000 -0.000000
RightUpLeg 21.858459 -14.179722 -17.375218
RightLeg 2.293973 -0.000000 -0.000000
RightFoot -11.442782 4.826928 20.277280
RightToeBase 14.349065 -0.000000 -0.000000
541
root 1.466444 35.732518 3.146878 -35.861825 -81.635734 22.973128
Spine 8.481825 1.718270 -3.221035
Head 2.604851 4.245490 -17.422367
LeftShoulder 8.275969 -5.406480 27.126787
LeftArm 85.973133 43.522610 -53.347955
LeftForeArm -49.661613 -0.000000 97.241858
LeftHand -34.038259 0.000000 22.396983
LeftHandThumb1 -26.253704 0.000000 33.147579
RightShoulder 6.652551 -21.927591 -31.861278
RightArm 96.982143 32.807197 76.508608
RightForeArm 6.064048 -0.000000 3.090241
RightHand 2.413420 -0.000000 -2.148714
RightHandThumb1 -24.326973 -0.000000 -32.862282
LeftUpLeg 15.075086 7.795287 4.593330
LeftLeg 11.229306 -0.000000 -0.000000
LeftFoot -14.112574 -0.077594 -11.128756
LeftToeBase 9.849434 -0.000000 -0.000000
RightUpLeg 21.861060 -14.189718 -17.374548
RightLeg 2.305122 -0.000000 -0.000000
RightFoot -11.462565 4.824216 20.298924
RightToeBase 14.336526 -0.000000 -0.000000
542
root 1.466908 35.732495 3.143691 -35.812718 -81.613528 22.928056
Spine 8.522844 1.758737 -3.280946
Head 2.653711 4.232558 -17.341828
LeftShoulder 8.271896 -5.448265 27.121091
LeftArm 86.034863 43.578802 -53.298334
LeftForeArm -49.776582 0.000000 97.156165
LeftHand -33.839042 -0.000000 22.363184
LeftHandThumb1 -26.253704 0.000000 33.147579
RightShoulder 6.718330 -21.956858 -31.939336
RightArm 96.351376 32.907590 75.152995
RightForeArm 3.814758 -0.000000 3.350637
RightHand 2.562981 -0.000000 -1.760763
RightHandThumb1 -24.326973 -0.000000 -32.862282
LeftUpLeg 15.059989 7.787132 4.594623
LeftLeg 11.235506 -0.000000 -0.000000
LeftFoot -14.075635 -0.113872 -11.150687
LeftToeBase 9.732611 -0.000000 -0.000000
RightUpLeg 21.852749 -14.178844 -17.366667
RightLeg 2.324238 -0.000000 -0.000000
RightFoot -11.475496 4.813225 20.315885
RightToeBase 14.296228 -0.000000 -0.000000
543
root 1.467811 35.733189 3.140600 -35.721329 -81.591565 22.849366
Spine 8.537667 1.814279 -3.322068
Head 2.759135 4.183669 -17.305452
LeftShoulder 8.326113 -5.429677 27.075538
LeftArm 86.087376 43.554715 -53.235755
LeftForeArm -50.005383 -0.000000 97.100275
LeftHand -33.749307 -0.000000 22.257026
LeftHandThumb1 -26.253704 0.000000 33.147579
RightShoulder 6.809082 -22.002010 -32.053275
RightArm 95.726927 32.998627 73.833239
RightForeArm 1.525435 -0.000000 3.594847
RightHand 2.636728 -0.000000 -0.945856
RightHandThumb1 -24.326973 -0.000000 -32.862282
LeftUpLeg 15.031748 7.766343 4.595196
LeftLeg 11.250517 -0.000000 -0.000000
LeftFoot -14.080455 -0.099068 -11.106863
LeftToeBase 9.773607 -0.000000 -0.000000
RightUpLeg 21.834714 -14.207666 -17.363050
RightLeg 2.349024 -0.000000 -0.000000
RightFoot -11.490561 4.809035 20.309113
RightToeBase 14.329190 -0.000000 -0.000000
544
root 1.466519 35.732220 3.136400 -35.684664 -81.571248 22.810945
Spine 8.592034 1.798934 -3.396482
Head 2.750119 4.203468 -17.223033
LeftShoulder 8.245032 -5.467402 27.096577
LeftArm 86.227965 43.637930 -53.098257
LeftForeArm -49.958295 0.000000 97.019803
LeftHand -33.530158 -0.000000 22.672729
LeftHandThumb1 -26.253704 0.000000 33.147579
RightShoulder 6.925379 -21.929128 -32.159863
RightArm 95.070789 33.039225 72.514025
RightForeArm -0.642064 -0.000000 3.802975
RightHand 2.628896 -0.000000 -0.098167
RightHandThumb1 -24.326973 -0.000000 -32.862282
LeftUpLeg 15.025086 7.766042 4.603287
LeftLeg 11.262454 -0.000000 -0.000000
LeftFoot -14.074974 -0.119358 -11.099094
LeftToeBase 9.751262 -0.000000 -0.000000
RightUpLeg 21.836168 -14.216883 -17.362305
RightLeg 2.367433 -0.000000 -0.000000
RightFoot -11.515256 4.803494 20.290796
RightToeBase 14.323822 -0.000000 -0.000000
